<svg width="1705" height="340" viewBox="0 0 1705 340" fill="none" xmlns="http://www.w3.org/2000/svg">
<path d="M1065.04 269.178C1045.38 287.117 1019.94 297.337 993.254 298.016C966.568 298.696 940.37 289.791 919.329 272.888C898.289 255.986 883.774 232.184 878.371 205.727C872.968 179.269 877.029 151.876 889.83 128.429C902.631 104.982 923.34 87.0052 948.265 77.7039C973.19 68.4027 1000.71 68.381 1025.92 77.6428C1051.14 86.9046 1072.4 104.848 1085.92 128.274L994.341 180.001" stroke="#E47935" stroke-width="38.6951" stroke-linecap="round"/>
<path d="M1118.32 19.3477C1118.32 8.66229 1109.66 9.15527e-05 1098.97 9.15527e-05C1088.29 9.15527e-05 1079.63 8.66229 1079.63 19.3477H1098.97H1118.32ZM1591.01 316.27C1601.7 316.27 1610.36 307.608 1610.36 296.922C1610.36 286.237 1601.7 277.575 1591.01 277.575V296.922V316.27ZM1098.97 177.366L1118.31 178.013C1120.08 125.151 1164.37 83.7314 1217.23 85.5003L1217.88 66.1636L1218.52 46.8268C1144.3 44.3432 1082.12 102.498 1079.64 176.719L1098.97 177.366ZM1217.88 66.1636L1217.23 85.5003C1270.09 87.2692 1311.51 131.557 1309.74 184.419L1329.08 185.066L1348.41 185.713C1350.9 111.492 1292.74 49.3105 1218.52 46.8268L1217.88 66.1636ZM1329.08 185.066L1309.74 184.419C1307.97 237.282 1263.69 278.701 1210.82 276.932L1210.18 296.269L1209.53 315.606C1283.75 318.089 1345.93 259.934 1348.41 185.713L1329.08 185.066ZM1210.18 296.269L1210.82 276.932C1157.96 275.163 1116.54 230.876 1118.31 178.013L1098.97 177.366L1079.64 176.719C1077.15 250.94 1135.31 313.122 1209.53 315.606L1210.18 296.269ZM1098.97 177.366H1118.32V19.3477H1098.97H1079.63V177.366H1098.97ZM1329.25 178.02L1348.59 178.667C1350.36 125.804 1394.64 84.3849 1447.51 86.1538L1448.15 66.817L1448.8 47.4803C1374.58 44.9966 1312.4 103.152 1309.91 177.373L1329.25 178.02ZM1448.15 66.817L1447.51 86.1538C1500.37 87.9227 1541.79 132.21 1540.02 185.073L1559.35 185.72L1578.69 186.367C1581.17 112.146 1523.02 49.9639 1448.8 47.4803L1448.15 66.817ZM1559.35 185.72L1540.02 185.073C1538.25 237.935 1493.96 279.355 1441.1 277.586L1440.45 296.922L1439.81 316.259C1514.03 318.743 1576.21 260.588 1578.69 186.367L1559.35 185.72ZM1440.45 296.922L1441.1 277.586C1388.24 275.817 1346.82 231.529 1348.59 178.667L1329.25 178.02L1309.91 177.373C1307.43 251.594 1365.58 313.775 1439.81 316.259L1440.45 296.922ZM1591.01 296.922V277.575C1583.89 277.575 1580.89 275.166 1578.74 272.191C1575.8 268.119 1573.59 261.303 1572.64 252.047C1571.74 243.12 1572.19 233.829 1572.96 226.518C1573.33 222.924 1573.77 219.946 1574.1 217.906C1574.27 216.889 1574.41 216.113 1574.5 215.618C1574.55 215.372 1574.58 215.196 1574.6 215.096C1574.61 215.046 1574.62 215.016 1574.62 215.005C1574.62 214.999 1574.62 214.999 1574.62 215.003C1574.62 215.005 1574.62 215.009 1574.62 215.014C1574.62 215.016 1574.62 215.021 1574.62 215.022C1574.62 215.027 1574.62 215.032 1555.67 211.092C1536.73 207.152 1536.73 207.158 1536.73 207.164C1536.73 207.167 1536.73 207.173 1536.73 207.178C1536.72 207.188 1536.72 207.2 1536.72 207.212C1536.71 207.237 1536.71 207.268 1536.7 207.304C1536.69 207.375 1536.67 207.468 1536.65 207.58C1536.6 207.806 1536.54 208.112 1536.47 208.493C1536.33 209.256 1536.14 210.324 1535.92 211.654C1535.48 214.308 1534.94 218.035 1534.47 222.488C1533.55 231.27 1532.87 243.437 1534.15 255.968C1535.39 268.169 1538.69 282.81 1547.36 294.832C1556.82 307.95 1571.53 316.27 1591.01 316.27V296.922Z" fill="#204DE6"/>
<path d="M1372.03 198.247H1388.45V203.227H1365.9V156.318H1372.03V198.247Z" fill="#E47935"/>
<path d="M1399.4 184.652C1399.4 180.883 1400.16 177.585 1401.68 174.758C1403.21 171.887 1405.3 169.666 1407.94 168.096C1410.64 166.525 1413.62 165.74 1416.89 165.74C1420.13 165.74 1422.93 166.435 1425.31 167.826C1427.69 169.217 1429.46 170.967 1430.62 173.076V166.346H1436.82V203.227H1430.62V196.362C1429.41 198.516 1427.6 200.311 1425.17 201.746C1422.79 203.137 1420.01 203.833 1416.83 203.833C1413.55 203.833 1410.59 203.025 1407.94 201.41C1405.3 199.795 1403.21 197.529 1401.68 194.612C1400.16 191.696 1399.4 188.376 1399.4 184.652ZM1430.62 184.719C1430.62 181.937 1430.06 179.514 1428.94 177.451C1427.82 175.387 1426.29 173.816 1424.37 172.739C1422.48 171.618 1420.39 171.057 1418.11 171.057C1415.82 171.057 1413.73 171.595 1411.85 172.672C1409.96 173.749 1408.46 175.319 1407.34 177.383C1406.22 179.447 1405.66 181.87 1405.66 184.652C1405.66 187.478 1406.22 189.946 1407.34 192.055C1408.46 194.119 1409.96 195.712 1411.85 196.833C1413.73 197.91 1415.82 198.449 1418.11 198.449C1420.39 198.449 1422.48 197.91 1424.37 196.833C1426.29 195.712 1427.82 194.119 1428.94 192.055C1430.06 189.946 1430.62 187.501 1430.62 184.719Z" fill="#E47935"/>
<path d="M1460.02 173.211C1461.28 171.012 1463.12 169.217 1465.54 167.826C1467.96 166.435 1470.72 165.74 1473.82 165.74C1477.14 165.74 1480.12 166.525 1482.77 168.096C1485.42 169.666 1487.5 171.887 1489.03 174.758C1490.55 177.585 1491.32 180.883 1491.32 184.652C1491.32 188.376 1490.55 191.696 1489.03 194.612C1487.5 197.529 1485.39 199.795 1482.7 201.41C1480.05 203.025 1477.09 203.833 1473.82 203.833C1470.63 203.833 1467.83 203.137 1465.4 201.746C1463.03 200.355 1461.23 198.583 1460.02 196.43V203.227H1453.9V153.424H1460.02V173.211ZM1485.06 184.652C1485.06 181.87 1484.5 179.447 1483.37 177.383C1482.25 175.319 1480.73 173.749 1478.8 172.672C1476.91 171.595 1474.83 171.057 1472.54 171.057C1470.3 171.057 1468.21 171.618 1466.28 172.739C1464.39 173.816 1462.87 175.409 1461.7 177.518C1460.58 179.582 1460.02 181.982 1460.02 184.719C1460.02 187.501 1460.58 189.946 1461.7 192.055C1462.87 194.119 1464.39 195.712 1466.28 196.833C1468.21 197.91 1470.3 198.449 1472.54 198.449C1474.83 198.449 1476.91 197.91 1478.8 196.833C1480.73 195.712 1482.25 194.119 1483.37 192.055C1484.5 189.946 1485.06 187.478 1485.06 184.652Z" fill="#E47935"/>
<path d="M1519.16 203.833C1516.34 203.833 1513.8 203.362 1511.56 202.419C1509.32 201.432 1507.54 200.086 1506.24 198.381C1504.94 196.631 1504.22 194.635 1504.09 192.391H1510.41C1510.59 194.231 1511.45 195.734 1512.97 196.901C1514.54 198.067 1516.58 198.651 1519.1 198.651C1521.43 198.651 1523.27 198.135 1524.62 197.103C1525.96 196.071 1526.63 194.769 1526.63 193.199C1526.63 191.584 1525.92 190.395 1524.48 189.632C1523.04 188.824 1520.82 188.039 1517.82 187.277C1515.08 186.559 1512.84 185.841 1511.09 185.123C1509.38 184.36 1507.9 183.261 1506.65 181.825C1505.43 180.344 1504.83 178.415 1504.83 176.037C1504.83 174.153 1505.39 172.425 1506.51 170.855C1507.63 169.285 1509.23 168.051 1511.29 167.153C1513.35 166.211 1515.71 165.74 1518.36 165.74C1522.44 165.74 1525.74 166.772 1528.25 168.836C1530.76 170.9 1532.11 173.726 1532.29 177.316H1526.16C1526.03 175.387 1525.24 173.839 1523.81 172.672C1522.42 171.506 1520.53 170.922 1518.15 170.922C1515.96 170.922 1514.21 171.393 1512.9 172.336C1511.6 173.278 1510.95 174.512 1510.95 176.037C1510.95 177.249 1511.33 178.258 1512.1 179.066C1512.9 179.828 1513.89 180.457 1515.06 180.95C1516.27 181.399 1517.93 181.915 1520.04 182.498C1522.69 183.216 1524.84 183.934 1526.5 184.652C1528.16 185.325 1529.57 186.357 1530.74 187.748C1531.95 189.139 1532.58 190.956 1532.62 193.199C1532.62 195.218 1532.06 197.035 1530.94 198.651C1529.82 200.266 1528.23 201.544 1526.16 202.487C1524.14 203.384 1521.81 203.833 1519.16 203.833Z" fill="#E47935"/>
<ellipse cx="1667.5" cy="277.958" rx="37.3897" ry="37.3899" fill="#E47935"/>
<path d="M281.175 294.017C227.987 294.017 245.839 208.187 245.839 208.187M451.126 141.216V312.686M451.126 141.216C423.153 27.686 298.125 71.6893 298.121 141.216C298.117 210.743 298.121 312.686 298.121 312.686M451.126 141.216C463.153 45.1864 606.126 45.1894 606.126 148.187V312.686M19.4153 175.114C21.5415 111.572 74.7758 61.7853 138.317 63.9115C201.859 66.0378 251.646 119.272 249.519 182.814C247.393 246.356 194.159 296.143 130.617 294.017C67.0759 291.891 17.289 238.656 19.4153 175.114ZM617.228 178.173C619.605 106.621 679.102 50.5585 750.119 52.9528C821.136 55.3471 876.78 115.292 874.404 186.843C872.027 258.395 812.53 314.457 741.513 312.063C670.496 309.669 614.852 249.724 617.228 178.173Z" stroke="#204DE6" stroke-width="38.7"/>
</svg>
